<svg xmlns="http://www.w3.org/2000/svg" viewBox="0 0 180 180" width="180" height="180" role="img" aria-label="ring-68 visual hash with scope face, payload 3cd3daeb134c"><circle cx="90" cy="90" r="66.42" fill="none" stroke="#e8e4d4" stroke-width="1"/><path d="M90.41 11.16A78.84 78.84 0 0 1 96.86 11.46L96.05 20.78A69.48 69.48 0 0 0 90.36 20.52Z" fill="#d9a23d" stroke="#e8e4d4" stroke-width="0.69"/><path d="M97.69 11.54A78.84 78.84 0 0 1 104.08 12.43L102.41 21.64A69.48 69.48 0 0 0 96.77 20.85Z" fill="#d9a23d"/><path d="M104.89 12.58A78.84 78.84 0 0 1 111.18 14.06L108.66 23.07A69.48 69.48 0 0 0 103.12 21.77Z" fill="#9fc1d0"/><path d="M111.97 14.28A78.84 78.84 0 0 1 118.09 16.34L114.76 25.08A69.48 69.48 0 0 0 109.36 23.27Z" fill="#d9a23d"/><path d="M118.86 16.63A78.84 78.84 0 0 1 124.77 19.24L120.64 27.64A69.48 69.48 0 0 0 115.44 25.34Z" fill="#d9a23d"/><path d="M125.51 19.61A78.84 78.84 0 0 1 131.15 22.75L126.27 30.74A69.48 69.48 0 0 0 121.3 27.97Z" fill="#d9a23d"/><path d="M131.85 23.19A78.84 78.84 0 0 1 137.18 26.84L131.58 34.34A69.48 69.48 0 0 0 126.89 31.12Z" fill="#8c8a6b"/><path d="M137.84 27.33A78.84 78.84 0 0 1 142.81 31.46L136.54 38.41A69.48 69.48 0 0 0 132.16 34.77Z" fill="#8c8a6b"/><path d="M143.42 32.02A78.84 78.84 0 0 1 147.98 36.58L141.1 42.92A69.48 69.48 0 0 0 137.08 38.9Z" fill="#d9a23d"/><path d="M148.54 37.19A78.84 78.84 0 0 1 152.67 42.16L145.23 47.84A69.48 69.48 0 0 0 141.59 43.46Z" fill="#8c8a6b"/><path d="M153.16 42.82A78.84 78.84 0 0 1 156.81 48.15L148.88 53.11A69.48 69.48 0 0 0 145.66 48.42Z" fill="#9fc1d0"/><path d="M157.25 48.85A78.84 78.84 0 0 1 160.39 54.49L152.03 58.7A69.48 69.48 0 0 0 149.26 53.73Z" fill="#d9a23d"/><path d="M160.76 55.23A78.84 78.84 0 0 1 163.37 61.14L154.66 64.56A69.48 69.48 0 0 0 152.36 59.36Z" fill="#8c8a6b"/><path d="M163.66 61.91A78.84 78.84 0 0 1 165.72 68.03L156.73 70.64A69.48 69.48 0 0 0 154.92 65.24Z" fill="#8c8a6b"/><path d="M165.94 68.82A78.84 78.84 0 0 1 167.42 75.11L158.23 76.88A69.48 69.48 0 0 0 156.93 71.34Z" fill="#9fc1d0"/><path d="M167.57 75.92A78.84 78.84 0 0 1 168.46 82.31L159.15 83.23A69.48 69.48 0 0 0 158.36 77.59Z" fill="#c8654a"/><path d="M168.54 83.14A78.84 78.84 0 0 1 168.84 89.59L159.48 89.64A69.48 69.48 0 0 0 159.22 83.95Z" fill="#c8654a"/><path d="M168.84 90.41A78.84 78.84 0 0 1 168.54 96.86L159.22 96.05A69.48 69.48 0 0 0 159.48 90.36Z" fill="#9fc1d0" stroke="#e8e4d4" stroke-width="0.69"/><path d="M168.46 97.69A78.84 78.84 0 0 1 167.57 104.08L158.36 102.41A69.48 69.48 0 0 0 159.15 96.77Z" fill="#8c8a6b"/><path d="M167.42 104.89A78.84 78.84 0 0 1 165.94 111.18L156.93 108.66A69.48 69.48 0 0 0 158.23 103.12Z" fill="#c8654a"/><path d="M165.72 111.97A78.84 78.84 0 0 1 163.66 118.09L154.92 114.76A69.48 69.48 0 0 0 156.73 109.36Z" fill="#c8654a"/><path d="M163.37 118.86A78.84 78.84 0 0 1 160.76 124.77L152.36 120.64A69.48 69.48 0 0 0 154.66 115.44Z" fill="#8c8a6b"/><path d="M160.39 125.51A78.84 78.84 0 0 1 157.25 131.15L149.26 126.27A69.48 69.48 0 0 0 152.03 121.3Z" fill="#d9a23d"/><path d="M156.81 131.85A78.84 78.84 0 0 1 153.16 137.18L145.66 131.58A69.48 69.48 0 0 0 148.88 126.89Z" fill="#9fc1d0"/><path d="M152.67 137.84A78.84 78.84 0 0 1 148.54 142.81L141.59 136.54A69.48 69.48 0 0 0 145.23 132.16Z" fill="#d9a23d"/><path d="M147.98 143.42A78.84 78.84 0 0 1 143.42 147.98L137.08 141.1A69.48 69.48 0 0 0 141.1 137.08Z" fill="#8c8a6b"/><path d="M142.81 148.54A78.84 78.84 0 0 1 137.84 152.67L132.16 145.23A69.48 69.48 0 0 0 136.54 141.59Z" fill="#9fc1d0"/><path d="M137.18 153.16A78.84 78.84 0 0 1 131.85 156.81L126.89 148.88A69.48 69.48 0 0 0 131.58 145.66Z" fill="#d9a23d"/><path d="M131.15 157.25A78.84 78.84 0 0 1 125.51 160.39L121.3 152.03A69.48 69.48 0 0 0 126.27 149.26Z" fill="#8c8a6b"/><path d="M124.77 160.76A78.84 78.84 0 0 1 118.86 163.37L115.44 154.66A69.48 69.48 0 0 0 120.64 152.36Z" fill="#d9a23d"/><path d="M118.09 163.66A78.84 78.84 0 0 1 111.97 165.72L109.36 156.73A69.48 69.48 0 0 0 114.76 154.92Z" fill="#9fc1d0"/><path d="M111.18 165.94A78.84 78.84 0 0 1 104.89 167.42L103.12 158.23A69.48 69.48 0 0 0 108.66 156.93Z" fill="#9fc1d0"/><path d="M104.08 167.57A78.84 78.84 0 0 1 97.69 168.46L96.77 159.15A69.48 69.48 0 0 0 102.41 158.36Z" fill="#c8654a"/><path d="M96.86 168.54A78.84 78.84 0 0 1 90.41 168.84L90.36 159.48A69.48 69.48 0 0 0 96.05 159.22Z" fill="#c8654a"/><path d="M89.59 168.84A78.84 78.84 0 0 1 83.14 168.54L83.95 159.22A69.48 69.48 0 0 0 89.64 159.48Z" fill="#c8654a" stroke="#e8e4d4" stroke-width="0.69"/><path d="M82.31 168.46A78.84 78.84 0 0 1 75.92 167.57L77.59 158.36A69.48 69.48 0 0 0 83.23 159.15Z" fill="#9fc1d0"/><path d="M75.11 167.42A78.84 78.84 0 0 1 68.82 165.94L71.34 156.93A69.48 69.48 0 0 0 76.88 158.23Z" fill="#9fc1d0"/><path d="M68.03 165.72A78.84 78.84 0 0 1 61.91 163.66L65.24 154.92A69.48 69.48 0 0 0 70.64 156.73Z" fill="#9fc1d0"/><path d="M61.14 163.37A78.84 78.84 0 0 1 55.23 160.76L59.36 152.36A69.48 69.48 0 0 0 64.56 154.66Z" fill="#8c8a6b"/><path d="M54.49 160.39A78.84 78.84 0 0 1 48.85 157.25L53.73 149.26A69.48 69.48 0 0 0 58.7 152.03Z" fill="#c8654a"/><path d="M48.15 156.81A78.84 78.84 0 0 1 42.82 153.16L48.42 145.66A69.48 69.48 0 0 0 53.11 148.88Z" fill="#d9a23d"/><path d="M42.16 152.67A78.84 78.84 0 0 1 37.19 148.54L43.46 141.59A69.48 69.48 0 0 0 47.84 145.23Z" fill="#c8654a"/><path d="M36.58 147.98A78.84 78.84 0 0 1 32.02 143.42L38.9 137.08A69.48 69.48 0 0 0 42.92 141.1Z" fill="#c8654a"/><path d="M31.46 142.81A78.84 78.84 0 0 1 27.33 137.84L34.77 132.16A69.48 69.48 0 0 0 38.41 136.54Z" fill="#8c8a6b"/><path d="M26.84 137.18A78.84 78.84 0 0 1 23.19 131.85L31.12 126.89A69.48 69.48 0 0 0 34.34 131.58Z" fill="#8c8a6b"/><path d="M22.75 131.15A78.84 78.84 0 0 1 19.61 125.51L27.97 121.3A69.48 69.48 0 0 0 30.74 126.27Z" fill="#d9a23d"/><path d="M19.24 124.77A78.84 78.84 0 0 1 16.63 118.86L25.34 115.44A69.48 69.48 0 0 0 27.64 120.64Z" fill="#c8654a"/><path d="M16.34 118.09A78.84 78.84 0 0 1 14.28 111.97L23.27 109.36A69.48 69.48 0 0 0 25.08 114.76Z" fill="#c8654a"/><path d="M14.06 111.18A78.84 78.84 0 0 1 12.58 104.89L21.77 103.12A69.48 69.48 0 0 0 23.07 108.66Z" fill="#d9a23d"/><path d="M12.43 104.08A78.84 78.84 0 0 1 11.54 97.69L20.85 96.77A69.48 69.48 0 0 0 21.64 102.41Z" fill="#c8654a"/><path d="M11.46 96.86A78.84 78.84 0 0 1 11.16 90.41L20.52 90.36A69.48 69.48 0 0 0 20.78 96.05Z" fill="#9fc1d0"/><path d="M11.16 89.59A78.84 78.84 0 0 1 11.46 83.14L20.78 83.95A69.48 69.48 0 0 0 20.52 89.64Z" fill="#8c8a6b" stroke="#e8e4d4" stroke-width="0.69"/><path d="M11.54 82.31A78.84 78.84 0 0 1 12.43 75.92L21.64 77.59A69.48 69.48 0 0 0 20.85 83.23Z" fill="#8c8a6b"/><path d="M12.58 75.11A78.84 78.84 0 0 1 14.06 68.82L23.07 71.34A69.48 69.48 0 0 0 21.77 76.88Z" fill="#c8654a"/><path d="M14.28 68.03A78.84 78.84 0 0 1 16.34 61.91L25.08 65.24A69.48 69.48 0 0 0 23.27 70.64Z" fill="#c8654a"/><path d="M16.63 61.14A78.84 78.84 0 0 1 19.24 55.23L27.64 59.36A69.48 69.48 0 0 0 25.34 64.56Z" fill="#8c8a6b"/><path d="M19.61 54.49A78.84 78.84 0 0 1 22.75 48.85L30.74 53.73A69.48 69.48 0 0 0 27.97 58.7Z" fill="#d9a23d"/><path d="M23.19 48.15A78.84 78.84 0 0 1 26.84 42.82L34.34 48.42A69.48 69.48 0 0 0 31.12 53.11Z" fill="#c8654a"/><path d="M27.33 42.16A78.84 78.84 0 0 1 31.46 37.19L38.41 43.46A69.48 69.48 0 0 0 34.77 47.84Z" fill="#c8654a"/><path d="M32.02 36.58A78.84 78.84 0 0 1 36.58 32.02L42.92 38.9A69.48 69.48 0 0 0 38.9 42.92Z" fill="#d9a23d"/><path d="M37.19 31.46A78.84 78.84 0 0 1 42.16 27.33L47.84 34.77A69.48 69.48 0 0 0 43.46 38.41Z" fill="#d9a23d"/><path d="M42.82 26.84A78.84 78.84 0 0 1 48.15 23.19L53.11 31.12A69.48 69.48 0 0 0 48.42 34.34Z" fill="#c8654a"/><path d="M48.85 22.75A78.84 78.84 0 0 1 54.49 19.61L58.7 27.97A69.48 69.48 0 0 0 53.73 30.74Z" fill="#c8654a"/><path d="M55.23 19.24A78.84 78.84 0 0 1 61.14 16.63L64.56 25.34A69.48 69.48 0 0 0 59.36 27.64Z" fill="#d9a23d"/><path d="M61.91 16.34A78.84 78.84 0 0 1 68.03 14.28L70.64 23.27A69.48 69.48 0 0 0 65.24 25.08Z" fill="#c8654a"/><path d="M68.82 14.06A78.84 78.84 0 0 1 75.11 12.58L76.88 21.77A69.48 69.48 0 0 0 71.34 23.07Z" fill="#c8654a"/><path d="M75.92 12.43A78.84 78.84 0 0 1 82.31 11.54L83.23 20.85A69.48 69.48 0 0 0 77.59 21.64Z" fill="#9fc1d0"/><path d="M83.14 11.46A78.84 78.84 0 0 1 89.59 11.16L89.64 20.52A69.48 69.48 0 0 0 83.95 20.78Z" fill="#d9a23d"/><path d="M76.77 72.02L76.79 72.65L76.83 73.30L76.87 73.97L76.93 74.66L77.01 75.36L77.09 76.08L77.19 76.82L77.30 77.58L77.41 78.35L77.54 79.14L77.68 79.94L77.83 80.76L77.99 81.59L78.16 82.43L78.34 83.29L78.53 84.16L78.72 85.04L78.93 85.93L79.13 86.83L79.35 87.74L79.57 88.66L79.80 89.58L80.04 90.51L80.28 91.45L80.52 92.39L80.77 93.34L81.02 94.29L81.28 95.25L81.54 96.21L81.80 97.16L82.06 98.12L82.32 99.08L82.59 100.04L82.85 101.00L83.11 101.95L83.37 102.90L83.64 103.84L83.90 104.78L84.15 105.72L84.41 106.64L84.66 107.56L84.90 108.47L85.14 109.37L85.38 110.26L85.61 111.14L85.84 112.01L86.06 112.87L86.27 113.71L86.48 114.54L86.68 115.35L86.87 116.15L87.05 116.93L87.22 117.69L87.38 118.44L87.54 119.17L87.68 119.88L87.81 120.57L87.93 121.24L88.04 121.89L88.14 122.51L88.23 123.12L88.30 123.70L88.36 124.26L88.41 124.80L88.45 125.31L88.47 125.80L88.48 126.26L88.48 126.70L88.46 127.11L88.43 127.50L88.39 127.86L88.33 128.20L88.25 128.50L88.16 128.78L88.06 129.04L87.94 129.26L87.81 129.46L87.66 129.63L87.50 129.78L87.33 129.89L87.13 129.98L86.93 130.04L86.71 130.07L86.48 130.08L86.23 130.05L85.97 130.00L85.69 129.93L85.40 129.82L85.10 129.69L84.78 129.53L84.45 129.35L84.11 129.14L83.75 128.90L83.39 128.64L83.01 128.35L82.62 128.04L82.22 127.70L81.80 127.34L81.38 126.96L80.95 126.55L80.50 126.12L80.05 125.67L79.59 125.20L79.12 124.71L78.64 124.19L78.15 123.66L77.66 123.11L77.16 122.54L76.66 121.95L76.15 121.34L75.63 120.72L75.11 120.09L74.58 119.44L74.05 118.77L73.52 118.09L72.99 117.40L72.45 116.70L71.92 115.98L71.38 115.26L70.84 114.53L70.30 113.78L69.77 113.03L69.23 112.28L68.70 111.51L68.17 110.74L67.64 109.97L67.11 109.19L66.59 108.41L66.08 107.63L65.57 106.84L65.07 106.06L64.57 105.27L64.08 104.49L63.60 103.71L63.12 102.93L62.66 102.15L62.20 101.38L61.75 100.61L61.32 99.85L60.89 99.10L60.48 98.35L60.07 97.61L59.68 96.88L59.30 96.15L58.94 95.44L58.58 94.74L58.24 94.05L57.92 93.37L57.61 92.70L57.31 92.04L57.03 91.40L56.76 90.77L56.51 90.16L56.28 89.56L56.06 88.98L55.86 88.41L55.68 87.86L55.51 87.32L55.36 86.81L55.23 86.31L55.12 85.82L55.02 85.36L54.94 84.91L54.88 84.49L54.84 84.08L54.82 83.69L54.81 83.32L54.83 82.98L54.86 82.65L54.91 82.34L54.98 82.05L55.07 81.78L55.18 81.53L55.30 81.30L55.45 81.10L55.61 80.91L55.79 80.74L55.99 80.60L56.21 80.47L56.45 80.37L56.70 80.28L56.98 80.22L57.27 80.17L57.58 80.15L57.90 80.14L58.24 80.16L58.60 80.19L58.98 80.24L59.37 80.31L59.78 80.40L60.20 80.51L60.64 80.64L61.10 80.78L61.57 80.94L62.05 81.12L62.55 81.32L63.07 81.53L63.60 81.75L64.14 82.00L64.69 82.25L65.26 82.53L65.83 82.81L66.42 83.11L67.03 83.42L67.64 83.75L68.26 84.09L68.89 84.44L69.54 84.80L70.19 85.17L70.85 85.55L71.52 85.95L72.20 86.35L72.88 86.76L73.58 87.17L74.28 87.60L74.98 88.03L75.69 88.47L76.41 88.91L77.13 89.36L77.86 89.82L78.59 90.28L79.32 90.74L80.06 91.20L80.79 91.67L81.53 92.14L82.28 92.61L83.02 93.08L83.76 93.55L84.51 94.02L85.25 94.49L86.00 94.96L86.74 95.42L87.48 95.89L88.22 96.34L88.95 96.80L89.69 97.25L90.42 97.70L91.14 98.14L91.87 98.57L92.58 99.00L93.29 99.42L94.00 99.83L94.70 100.23L95.40 100.63L96.08 101.01L96.76 101.39L97.44 101.75L98.10 102.11L98.76 102.45L99.41 102.78L100.05 103.10L100.68 103.41L101.30 103.70L101.91 103.98L102.51 104.24L103.09 104.50L103.67 104.73L104.24 104.96L104.79 105.16L105.34 105.35L105.87 105.53L106.39 105.68L106.89 105.83L107.39 105.95L107.87 106.06L108.33 106.14L108.79 106.22L109.23 106.27L109.65 106.30L110.06 106.32L110.46 106.32L110.84 106.29L111.21 106.25L111.56 106.19L111.90 106.11L112.22 106.01L112.53 105.89L112.82 105.75L113.09 105.60L113.36 105.42L113.60 105.22L113.83 105.00L114.04 104.76L114.24 104.50L114.43 104.22L114.59 103.93L114.74 103.61L114.88 103.27L115.00 102.91L115.10 102.54L115.19 102.14L115.27 101.73L115.32 101.29L115.37 100.84L115.39 100.37L115.41 99.88L115.41 99.37L115.39 98.85L115.36 98.31L115.31 97.75L115.25 97.17L115.18 96.58L115.09 95.97L114.99 95.34L114.87 94.70L114.74 94.05L114.60 93.38L114.45 92.70L114.29 92.00L114.11 91.29L113.92 90.57L113.72 89.83L113.51 89.09L113.28 88.33L113.05 87.56L112.81 86.79L112.56 86.00L112.30 85.21L112.03 84.41L111.75 83.60L111.46 82.78L111.17 81.96L110.86 81.13L110.56 80.30L110.24 79.46L109.92 78.62L109.60 77.78L109.26 76.94L108.93 76.09L108.59 75.24L108.25 74.40L107.90 73.56L107.55 72.71L107.20 71.87L106.85 71.04L106.49 70.20L106.14 69.38L105.78 68.55L105.43 67.74L105.07 66.93L104.72 66.13L104.37 65.34L104.02 64.55L103.67 63.78L103.33 63.02L102.98 62.27L102.65 61.53L102.32 60.80L101.99 60.09L101.67 59.40L101.35 58.71L101.04 58.05L100.74 57.40L100.44 56.76L100.15 56.15L99.87 55.55L99.60 54.97L99.34 54.42L99.08 53.88L98.84 53.36L98.60 52.86L98.38 52.39L98.16 51.94L97.96 51.51L97.77 51.10L97.58 50.72L97.41 50.36L97.25 50.03L97.11 49.72L96.97 49.44L96.85 49.18L96.74 48.95L96.65 48.74L96.56 48.57L96.49 48.41L96.44 48.29L96.39 48.19L96.36 48.12L96.35 48.08L96.35 48.06L96.36 48.08L96.38 48.11L96.42 48.18L96.47 48.28L96.54 48.40L96.61 48.55L96.71 48.73L96.81 48.93L96.93 49.17L97.06 49.43L97.21 49.71L97.36 50.03L97.53 50.37L97.72 50.73L97.91 51.12L98.12 51.54L98.33 51.98L98.56 52.45L98.80 52.94L99.05 53.45L99.32 53.99L99.59 54.55L99.87 55.13L100.16 55.73L100.46 56.36L100.76 57.00L101.08 57.67L101.40 58.35L101.73 59.06L102.07 59.78L102.42 60.52L102.77 61.27L103.12 62.04L103.48 62.83L103.85 63.63L104.21 64.45L104.59 65.27L104.96 66.11L105.34 66.96L105.72 67.83L106.09 68.70L106.48 69.58L106.86 70.46L107.24 71.36L107.62 72.26L107.99 73.17L108.37 74.08L108.74 74.99L109.11 75.91L109.48 76.83L109.84 77.75L110.19 78.67L110.55 79.59L110.89 80.51L111.23 81.43L111.56 82.34L111.89 83.25L112.20 84.16L112.51 85.06L112.81 85.95L113.10 86.84L113.38 87.72L113.65 88.58L113.90 89.44L114.15 90.29L114.38 91.13L114.60 91.96L114.81 92.77L115.01 93.57L115.19 94.36L115.36 95.13L115.51 95.89L115.65 96.63L115.78 97.36L115.89 98.07L115.98 98.76L116.06 99.43L116.12 100.09L116.16 100.73L116.19 101.34L116.20 101.94L116.20 102.52L116.17 103.07L116.13 103.61L116.08 104.12L116.00 104.62L115.91 105.09L115.80 105.53L115.67 105.96L115.52 106.36L115.36 106.75L115.17 107.10L114.97 107.44L114.75 107.75L114.52 108.04L114.26 108.30L113.99 108.55L113.70 108.76L113.39 108.96L113.06 109.13L112.72 109.28L112.36 109.41L111.98 109.51L111.59 109.59L111.18 109.65L110.75 109.68L110.31 109.69L109.85 109.68L109.38 109.65L108.89 109.60L108.38 109.53L107.87 109.43L107.33 109.32L106.79 109.18L106.22 109.03L105.65 108.86L105.06 108.66L104.47 108.45L103.85 108.22L103.23 107.98L102.60 107.71L101.95 107.43L101.30 107.14L100.63 106.83L99.96 106.50L99.28 106.16L98.58 105.80L97.89 105.44L97.18 105.05L96.46 104.66L95.74 104.26L95.02 103.84L94.29 103.42L93.55 102.98L92.81 102.54L92.06 102.08L91.31 101.62L90.56 101.16L89.81 100.68L89.05 100.20L88.30 99.72L87.54 99.23L86.78 98.73L86.02 98.24L85.26 97.74L84.51 97.23L83.75 96.73L83.00 96.23L82.25 95.72L81.51 95.22L80.76 94.72L80.02 94.22L79.29 93.72L78.56 93.22L77.84 92.73L77.12 92.25L76.41 91.76L75.71 91.29L75.01 90.82L74.32 90.35L73.64 89.89L72.97 89.45L72.31 89.00L71.65 88.57L71.01 88.15L70.38 87.73L69.76 87.33L69.14 86.94L68.54 86.55L67.96 86.18L67.38 85.82L66.82 85.48L66.27 85.15L65.73 84.83L65.20 84.52L64.69 84.23L64.19 83.95L63.71 83.69L63.24 83.44L62.79 83.20L62.35 82.99L61.92 82.78L61.51 82.60L61.12 82.43L60.74 82.28L60.38 82.14L60.03 82.03L59.70 81.92L59.39 81.84L59.09 81.78L58.81 81.73L58.54 81.70L58.29 81.68L58.06 81.69L57.84 81.71L57.65 81.76L57.47 81.82L57.30 81.90L57.15 81.99L57.02 82.11L56.91 82.24L56.81 82.39L56.73 82.56L56.67 82.75L56.62 82.96L56.59 83.18L56.58 83.42L56.58 83.68L56.60 83.96L56.64 84.25L56.69 84.57L56.76 84.89L56.85 85.24L56.95 85.60L57.06 85.98L57.19 86.37L57.34 86.78L57.50 87.21L57.68 87.65L57.87 88.10L58.08 88.57L58.30 89.05L58.53 89.55L58.78 90.06L59.04 90.59L59.31 91.12L59.60 91.67L59.90 92.23L60.21 92.80L60.54 93.38L60.87 93.98L61.22 94.58L61.58 95.19L61.95 95.81L62.33 96.44L62.71 97.08L63.11 97.72L63.52 98.37L63.94 99.03L64.36 99.69L64.79 100.36L65.23 101.03L65.68 101.70L66.14 102.38L66.60 103.07L67.06 103.75L67.54 104.43L68.01 105.12L68.50 105.81L68.98 106.49L69.47 107.18L69.97 107.86L70.46 108.54L70.96 109.21L71.46 109.89L71.97 110.56L72.47 111.22L72.97 111.88L73.48 112.53L73.98 113.17L74.49 113.81L74.99 114.44L75.49 115.06L75.99 115.67L76.48 116.27L76.98 116.86L77.47 117.43L77.95 118.00L78.43 118.55L78.91 119.09L79.38 119.61L79.85 120.12L80.31 120.61L80.76 121.09L81.21 121.55L81.65 122.00L82.08 122.42L82.51 122.83L82.92 123.22L83.33 123.60L83.73 123.95L84.12 124.28L84.50 124.59L84.87 124.88L85.22 125.15L85.57 125.39L85.91 125.62L86.24 125.82L86.55 126.00L86.85 126.15L87.14 126.28L87.42 126.39L87.69 126.47L87.94 126.53L88.18 126.57L88.41 126.57L88.63 126.56L88.83 126.52L89.02 126.45L89.19 126.36L89.35 126.24L89.50 126.09L89.63 125.92L89.75 125.73L89.86 125.51L89.95 125.26L90.03 124.98L90.10 124.69L90.15 124.36L90.19 124.01L90.22 123.64L90.23 123.24L90.23 122.81L90.21 122.36L90.18 121.89L90.14 121.39L90.09 120.87L90.03 120.32L89.95 119.75L89.86 119.16L89.76 118.55L89.64 117.91L89.52 117.26L89.39 116.58L89.24 115.88L89.09 115.17L88.92 114.43L88.74 113.67L88.56 112.90L88.37 112.11L88.17 111.30L87.96 110.48L87.74 109.64L87.52 108.78L87.29 107.92L87.05 107.03L86.81 106.14L86.56 105.23L86.31 104.32L86.05 103.39L85.79 102.45L85.53 101.51L85.26 100.55L84.99 99.59L84.72 98.63L84.45 97.65L84.17 96.68L83.90 95.70L83.63 94.71L83.36 93.73L83.09 92.74L82.82 91.75L82.55 90.77L82.29 89.78L82.03 88.80L81.77 87.82L81.52 86.85L81.28 85.88L81.04 84.91L80.80 83.96L80.57 83.01L80.35 82.06L80.14 81.13L79.94 80.21L79.74 79.30L79.55 78.40L79.38 77.51L79.21 76.63L79.05 75.77L78.91 74.93L78.77 74.09L78.65 73.28L78.54 72.48L78.44 71.70L78.35 70.94L78.28 70.19L78.22 69.47L78.17 68.76L78.14 68.08L78.12 67.41L78.12 66.77L78.13 66.15L78.16 65.55L78.20 64.97L78.26 64.42L78.33 63.89L78.42 63.38L78.53 62.90L78.65 62.44L78.79 62.01L78.94 61.61L79.11 61.22L79.30 60.87L79.50 60.54L79.72 60.23L79.96 59.95L80.21 59.70L80.48 59.47L80.76 59.27L81.06 59.10L81.38 58.95L81.71 58.83L82.06 58.73L82.42 58.66L82.80 58.61L83.19 58.60L83.60 58.60L84.03 58.63L84.46 58.69L84.92 58.77L85.38 58.87L85.86 59.00L86.35 59.15L86.86 59.32L87.38 59.52L87.91 59.74L88.45 59.98L89.00 60.25L89.57 60.53L90.14 60.84L90.73 61.16L91.32 61.51L91.92 61.87L92.54 62.25L93.16 62.65L93.79 63.07L94.42 63.50L95.06 63.95L95.71 64.42L96.37 64.90L97.03 65.39L97.69 65.90L98.36 66.42L99.03 66.95L99.71 67.49L100.38 68.05L101.06 68.61L101.74 69.18L102.42 69.76L103.11 70.35L103.79 70.95L104.47 71.55L105.15 72.16L105.82 72.77L106.50 73.38L107.17 74.00L107.84 74.62L108.50 75.25L109.16 75.87L109.82 76.50L110.47 77.12L111.11 77.75L111.75 78.37L112.37 78.99L112.99 79.61L113.61 80.22L114.21 80.83L114.81 81.43L115.39 82.03L115.97 82.62L116.53 83.21L117.08 83.78L117.63 84.35L118.16 84.91L118.67 85.46L119.18 86.01L119.67 86.54L120.15 87.06L120.62 87.56L121.07 88.06L121.50 88.54L121.93 89.01L122.33 89.47L122.73 89.92L123.10 90.34L123.46 90.76L123.81 91.16L124.13 91.54L124.45 91.91L124.74 92.27L125.02 92.60L125.28 92.92L125.52 93.23L125.75 93.51L125.96 93.78L126.15 94.03L126.32 94.27L126.48 94.48L126.61 94.68L126.73 94.86L126.83 95.02L126.91 95.17L126.98 95.29L127.03 95.40L127.05 95.48L127.06 95.55L127.06 95.60L127.03 95.64L126.99 95.65L126.92 95.64L126.84 95.62L126.75 95.58L126.63 95.52L126.50 95.44L126.35 95.34L126.18 95.23L126.00 95.10L125.79 94.95L125.58 94.79L125.34 94.60L125.09 94.40L124.82 94.19L124.54 93.95L124.24 93.71L123.93 93.44L123.60 93.16L123.25 92.87L122.89 92.56L122.52 92.24L122.13 91.90L121.73 91.55L121.31 91.18L120.88 90.81L120.44 90.42L119.99 90.01L119.52 89.60L119.04 89.18L118.55 88.74L118.05 88.30L117.54 87.84L117.02 87.38L116.49 86.90L115.95 86.42L115.40 85.93L114.84 85.44L114.27 84.93L113.69 84.43L113.11 83.91L112.52 83.39L111.92 82.87L111.31 82.34L110.70 81.80L110.09 81.27L109.46 80.73L108.84 80.19L108.21 79.65L107.57 79.11L106.93 78.57L106.29 78.03L105.65 77.49L105.00 76.95L104.36 76.41L103.71 75.88L103.06 75.35L102.41 74.83L101.76 74.30L101.11 73.79L100.46 73.28L99.81 72.78L99.17 72.28L98.53 71.79L97.89 71.31L97.25 70.84L96.61 70.37L95.98 69.92L95.36 69.48L94.74 69.04L94.12 68.62L93.51 68.21L92.91 67.82L92.31 67.43L91.72 67.06L91.14 66.71L90.56 66.37L89.99 66.04L89.43 65.73L88.88 65.44L88.34 65.16L87.80 64.89L87.28 64.65L86.77 64.42L86.26 64.21L85.77 64.02L85.29 63.85L84.82 63.70L84.36 63.57L83.91 63.46L83.48 63.36L83.05 63.29L82.64 63.24L82.24 63.21L81.86 63.20L81.49 63.21L81.13 63.25L80.78 63.30L80.45 63.38L80.13 63.48L79.83 63.61L79.54 63.75L79.26 63.92L79.00 64.11L78.75 64.33L78.52 64.57L78.30 64.83L78.10 65.11L77.91 65.41L77.73 65.74L77.57 66.09L77.43 66.47L77.30 66.86L77.18 67.28L77.08 67.72L76.99 68.19L76.92 68.67L76.86 69.18L76.81 69.70L76.78 70.25L76.76 70.82L76.76 71.41L76.77 72.02" fill="none" stroke="#D35233" stroke-width="1.74" opacity="0.1" stroke-linejoin="round" stroke-linecap="round"/><path d="M76.77 72.02L76.79 72.65L76.83 73.30L76.87 73.97L76.93 74.66L77.01 75.36L77.09 76.08L77.19 76.82L77.30 77.58L77.41 78.35L77.54 79.14L77.68 79.94L77.83 80.76L77.99 81.59L78.16 82.43L78.34 83.29L78.53 84.16L78.72 85.04L78.93 85.93L79.13 86.83L79.35 87.74L79.57 88.66L79.80 89.58L80.04 90.51L80.28 91.45L80.52 92.39L80.77 93.34L81.02 94.29L81.28 95.25L81.54 96.21L81.80 97.16L82.06 98.12L82.32 99.08L82.59 100.04L82.85 101.00L83.11 101.95L83.37 102.90L83.64 103.84L83.90 104.78L84.15 105.72L84.41 106.64L84.66 107.56L84.90 108.47L85.14 109.37L85.38 110.26L85.61 111.14L85.84 112.01L86.06 112.87L86.27 113.71L86.48 114.54L86.68 115.35L86.87 116.15L87.05 116.93L87.22 117.69L87.38 118.44L87.54 119.17L87.68 119.88L87.81 120.57L87.93 121.24L88.04 121.89L88.14 122.51L88.23 123.12L88.30 123.70L88.36 124.26L88.41 124.80L88.45 125.31L88.47 125.80L88.48 126.26L88.48 126.70L88.46 127.11L88.43 127.50L88.39 127.86L88.33 128.20L88.25 128.50L88.16 128.78L88.06 129.04L87.94 129.26L87.81 129.46L87.66 129.63L87.50 129.78L87.33 129.89L87.13 129.98L86.93 130.04L86.71 130.07L86.48 130.08L86.23 130.05L85.97 130.00L85.69 129.93L85.40 129.82L85.10 129.69L84.78 129.53L84.45 129.35L84.11 129.14L83.75 128.90L83.39 128.64L83.01 128.35L82.62 128.04L82.22 127.70L81.80 127.34L81.38 126.96L80.95 126.55L80.50 126.12L80.05 125.67L79.59 125.20L79.12 124.71L78.64 124.19L78.15 123.66L77.66 123.11L77.16 122.54L76.66 121.95L76.15 121.34L75.63 120.72L75.11 120.09L74.58 119.44L74.05 118.77L73.52 118.09L72.99 117.40L72.45 116.70L71.92 115.98L71.38 115.26L70.84 114.53L70.30 113.78L69.77 113.03L69.23 112.28L68.70 111.51L68.17 110.74L67.64 109.97L67.11 109.19L66.59 108.41L66.08 107.63L65.57 106.84L65.07 106.06L64.57 105.27L64.08 104.49L63.60 103.71L63.12 102.93L62.66 102.15L62.20 101.38L61.75 100.61L61.32 99.85L60.89 99.10L60.48 98.35L60.07 97.61L59.68 96.88L59.30 96.15L58.94 95.44L58.58 94.74L58.24 94.05L57.92 93.37L57.61 92.70L57.31 92.04L57.03 91.40L56.76 90.77L56.51 90.16L56.28 89.56L56.06 88.98L55.86 88.41L55.68 87.86L55.51 87.32L55.36 86.81L55.23 86.31L55.12 85.82L55.02 85.36L54.94 84.91L54.88 84.49L54.84 84.08L54.82 83.69L54.81 83.32L54.83 82.98L54.86 82.65L54.91 82.34L54.98 82.05L55.07 81.78L55.18 81.53L55.30 81.30L55.45 81.10L55.61 80.91L55.79 80.74L55.99 80.60L56.21 80.47L56.45 80.37L56.70 80.28L56.98 80.22L57.27 80.17L57.58 80.15L57.90 80.14L58.24 80.16L58.60 80.19L58.98 80.24L59.37 80.31L59.78 80.40L60.20 80.51L60.64 80.64L61.10 80.78L61.57 80.94L62.05 81.12L62.55 81.32L63.07 81.53L63.60 81.75L64.14 82.00L64.69 82.25L65.26 82.53L65.83 82.81L66.42 83.11L67.03 83.42L67.64 83.75L68.26 84.09L68.89 84.44L69.54 84.80L70.19 85.17L70.85 85.55L71.52 85.95L72.20 86.35L72.88 86.76L73.58 87.17L74.28 87.60L74.98 88.03L75.69 88.47L76.41 88.91L77.13 89.36L77.86 89.82L78.59 90.28L79.32 90.74L80.06 91.20L80.79 91.67L81.53 92.14L82.28 92.61L83.02 93.08L83.76 93.55L84.51 94.02L85.25 94.49L86.00 94.96L86.74 95.42L87.48 95.89L88.22 96.34L88.95 96.80L89.69 97.25L90.42 97.70L91.14 98.14L91.87 98.57L92.58 99.00L93.29 99.42L94.00 99.83L94.70 100.23L95.40 100.63L96.08 101.01L96.76 101.39L97.44 101.75L98.10 102.11L98.76 102.45L99.41 102.78L100.05 103.10L100.68 103.41L101.30 103.70L101.91 103.98L102.51 104.24L103.09 104.50L103.67 104.73L104.24 104.96L104.79 105.16L105.34 105.35L105.87 105.53L106.39 105.68L106.89 105.83L107.39 105.95L107.87 106.06L108.33 106.14L108.79 106.22L109.23 106.27L109.65 106.30L110.06 106.32L110.46 106.32L110.84 106.29L111.21 106.25L111.56 106.19L111.90 106.11L112.22 106.01L112.53 105.89L112.82 105.75L113.09 105.60L113.36 105.42L113.60 105.22L113.83 105.00L114.04 104.76L114.24 104.50L114.43 104.22L114.59 103.93L114.74 103.61L114.88 103.27L115.00 102.91L115.10 102.54L115.19 102.14L115.27 101.73L115.32 101.29L115.37 100.84L115.39 100.37L115.41 99.88L115.41 99.37L115.39 98.85L115.36 98.31L115.31 97.75L115.25 97.17L115.18 96.58L115.09 95.97L114.99 95.34L114.87 94.70L114.74 94.05L114.60 93.38L114.45 92.70L114.29 92.00L114.11 91.29L113.92 90.57L113.72 89.83L113.51 89.09L113.28 88.33L113.05 87.56L112.81 86.79L112.56 86.00L112.30 85.21L112.03 84.41L111.75 83.60L111.46 82.78L111.17 81.96L110.86 81.13L110.56 80.30L110.24 79.46L109.92 78.62L109.60 77.78L109.26 76.94L108.93 76.09L108.59 75.24L108.25 74.40L107.90 73.56L107.55 72.71L107.20 71.87L106.85 71.04L106.49 70.20L106.14 69.38L105.78 68.55L105.43 67.74L105.07 66.93L104.72 66.13L104.37 65.34L104.02 64.55L103.67 63.78L103.33 63.02L102.98 62.27L102.65 61.53L102.32 60.80L101.99 60.09L101.67 59.40L101.35 58.71L101.04 58.05L100.74 57.40L100.44 56.76L100.15 56.15L99.87 55.55L99.60 54.97L99.34 54.42L99.08 53.88L98.84 53.36L98.60 52.86L98.38 52.39L98.16 51.94L97.96 51.51L97.77 51.10L97.58 50.72L97.41 50.36L97.25 50.03L97.11 49.72L96.97 49.44L96.85 49.18L96.74 48.95L96.65 48.74L96.56 48.57L96.49 48.41L96.44 48.29L96.39 48.19L96.36 48.12L96.35 48.08L96.35 48.06L96.36 48.08L96.38 48.11L96.42 48.18L96.47 48.28L96.54 48.40L96.61 48.55L96.71 48.73L96.81 48.93L96.93 49.17L97.06 49.43L97.21 49.71L97.36 50.03L97.53 50.37L97.72 50.73L97.91 51.12L98.12 51.54L98.33 51.98L98.56 52.45L98.80 52.94L99.05 53.45L99.32 53.99L99.59 54.55L99.87 55.13L100.16 55.73L100.46 56.36L100.76 57.00L101.08 57.67L101.40 58.35L101.73 59.06L102.07 59.78L102.42 60.52L102.77 61.27L103.12 62.04L103.48 62.83L103.85 63.63L104.21 64.45L104.59 65.27L104.96 66.11L105.34 66.96L105.72 67.83L106.09 68.70L106.48 69.58L106.86 70.46L107.24 71.36L107.62 72.26L107.99 73.17L108.37 74.08L108.74 74.99L109.11 75.91L109.48 76.83L109.84 77.75L110.19 78.67L110.55 79.59L110.89 80.51L111.23 81.43L111.56 82.34L111.89 83.25L112.20 84.16L112.51 85.06L112.81 85.95L113.10 86.84L113.38 87.72L113.65 88.58L113.90 89.44L114.15 90.29L114.38 91.13L114.60 91.96L114.81 92.77L115.01 93.57L115.19 94.36L115.36 95.13L115.51 95.89L115.65 96.63L115.78 97.36L115.89 98.07L115.98 98.76L116.06 99.43L116.12 100.09L116.16 100.73L116.19 101.34L116.20 101.94L116.20 102.52L116.17 103.07L116.13 103.61L116.08 104.12L116.00 104.62L115.91 105.09L115.80 105.53L115.67 105.96L115.52 106.36L115.36 106.75L115.17 107.10L114.97 107.44L114.75 107.75L114.52 108.04L114.26 108.30L113.99 108.55L113.70 108.76L113.39 108.96L113.06 109.13L112.72 109.28L112.36 109.41L111.98 109.51L111.59 109.59L111.18 109.65L110.75 109.68L110.31 109.69L109.85 109.68L109.38 109.65L108.89 109.60L108.38 109.53L107.87 109.43L107.33 109.32L106.79 109.18L106.22 109.03L105.65 108.86L105.06 108.66L104.47 108.45L103.85 108.22L103.23 107.98L102.60 107.71L101.95 107.43L101.30 107.14L100.63 106.83L99.96 106.50L99.28 106.16L98.58 105.80L97.89 105.44L97.18 105.05L96.46 104.66L95.74 104.26L95.02 103.84L94.29 103.42L93.55 102.98L92.81 102.54L92.06 102.08L91.31 101.62L90.56 101.16L89.81 100.68L89.05 100.20L88.30 99.72L87.54 99.23L86.78 98.73L86.02 98.24L85.26 97.74L84.51 97.23L83.75 96.73L83.00 96.23L82.25 95.72L81.51 95.22L80.76 94.72L80.02 94.22L79.29 93.72L78.56 93.22L77.84 92.73L77.12 92.25L76.41 91.76L75.71 91.29L75.01 90.82L74.32 90.35L73.64 89.89L72.97 89.45L72.31 89.00L71.65 88.57L71.01 88.15L70.38 87.73L69.76 87.33L69.14 86.94L68.54 86.55L67.96 86.18L67.38 85.82L66.82 85.48L66.27 85.15L65.73 84.83L65.20 84.52L64.69 84.23L64.19 83.95L63.71 83.69L63.24 83.44L62.79 83.20L62.35 82.99L61.92 82.78L61.51 82.60L61.12 82.43L60.74 82.28L60.38 82.14L60.03 82.03L59.70 81.92L59.39 81.84L59.09 81.78L58.81 81.73L58.54 81.70L58.29 81.68L58.06 81.69L57.84 81.71L57.65 81.76L57.47 81.82L57.30 81.90L57.15 81.99L57.02 82.11L56.91 82.24L56.81 82.39L56.73 82.56L56.67 82.75L56.62 82.96L56.59 83.18L56.58 83.42L56.58 83.68L56.60 83.96L56.64 84.25L56.69 84.57L56.76 84.89L56.85 85.24L56.95 85.60L57.06 85.98L57.19 86.37L57.34 86.78L57.50 87.21L57.68 87.65L57.87 88.10L58.08 88.57L58.30 89.05L58.53 89.55L58.78 90.06L59.04 90.59L59.31 91.12L59.60 91.67L59.90 92.23L60.21 92.80L60.54 93.38L60.87 93.98L61.22 94.58L61.58 95.19L61.95 95.81L62.33 96.44L62.71 97.08L63.11 97.72L63.52 98.37L63.94 99.03L64.36 99.69L64.79 100.36L65.23 101.03L65.68 101.70L66.14 102.38L66.60 103.07L67.06 103.75L67.54 104.43L68.01 105.12L68.50 105.81L68.98 106.49L69.47 107.18L69.97 107.86L70.46 108.54L70.96 109.21L71.46 109.89L71.97 110.56L72.47 111.22L72.97 111.88L73.48 112.53L73.98 113.17L74.49 113.81L74.99 114.44L75.49 115.06L75.99 115.67L76.48 116.27L76.98 116.86L77.47 117.43L77.95 118.00L78.43 118.55L78.91 119.09L79.38 119.61L79.85 120.12L80.31 120.61L80.76 121.09L81.21 121.55L81.65 122.00L82.08 122.42L82.51 122.83L82.92 123.22L83.33 123.60L83.73 123.95L84.12 124.28L84.50 124.59L84.87 124.88L85.22 125.15L85.57 125.39L85.91 125.62L86.24 125.82L86.55 126.00L86.85 126.15L87.14 126.28L87.42 126.39L87.69 126.47L87.94 126.53L88.18 126.57L88.41 126.57L88.63 126.56L88.83 126.52L89.02 126.45L89.19 126.36L89.35 126.24L89.50 126.09L89.63 125.92L89.75 125.73L89.86 125.51L89.95 125.26L90.03 124.98L90.10 124.69L90.15 124.36L90.19 124.01L90.22 123.64L90.23 123.24L90.23 122.81L90.21 122.36L90.18 121.89L90.14 121.39L90.09 120.87L90.03 120.32L89.95 119.75L89.86 119.16L89.76 118.55L89.64 117.91L89.52 117.26L89.39 116.58L89.24 115.88L89.09 115.17L88.92 114.43L88.74 113.67L88.56 112.90L88.37 112.11L88.17 111.30L87.96 110.48L87.74 109.64L87.52 108.78L87.29 107.92L87.05 107.03L86.81 106.14L86.56 105.23L86.31 104.32L86.05 103.39L85.79 102.45L85.53 101.51L85.26 100.55L84.99 99.59L84.72 98.63L84.45 97.65L84.17 96.68L83.90 95.70L83.63 94.71L83.36 93.73L83.09 92.74L82.82 91.75L82.55 90.77L82.29 89.78L82.03 88.80L81.77 87.82L81.52 86.85L81.28 85.88L81.04 84.91L80.80 83.96L80.57 83.01L80.35 82.06L80.14 81.13L79.94 80.21L79.74 79.30L79.55 78.40L79.38 77.51L79.21 76.63L79.05 75.77L78.91 74.93L78.77 74.09L78.65 73.28L78.54 72.48L78.44 71.70L78.35 70.94L78.28 70.19L78.22 69.47L78.17 68.76L78.14 68.08L78.12 67.41L78.12 66.77L78.13 66.15L78.16 65.55L78.20 64.97L78.26 64.42L78.33 63.89L78.42 63.38L78.53 62.90L78.65 62.44L78.79 62.01L78.94 61.61L79.11 61.22L79.30 60.87L79.50 60.54L79.72 60.23L79.96 59.95L80.21 59.70L80.48 59.47L80.76 59.27L81.06 59.10L81.38 58.95L81.71 58.83L82.06 58.73L82.42 58.66L82.80 58.61L83.19 58.60L83.60 58.60L84.03 58.63L84.46 58.69L84.92 58.77L85.38 58.87L85.86 59.00L86.35 59.15L86.86 59.32L87.38 59.52L87.91 59.74L88.45 59.98L89.00 60.25L89.57 60.53L90.14 60.84L90.73 61.16L91.32 61.51L91.92 61.87L92.54 62.25L93.16 62.65L93.79 63.07L94.42 63.50L95.06 63.95L95.71 64.42L96.37 64.90L97.03 65.39L97.69 65.90L98.36 66.42L99.03 66.95L99.71 67.49L100.38 68.05L101.06 68.61L101.74 69.18L102.42 69.76L103.11 70.35L103.79 70.95L104.47 71.55L105.15 72.16L105.82 72.77L106.50 73.38L107.17 74.00L107.84 74.62L108.50 75.25L109.16 75.87L109.82 76.50L110.47 77.12L111.11 77.75L111.75 78.37L112.37 78.99L112.99 79.61L113.61 80.22L114.21 80.83L114.81 81.43L115.39 82.03L115.97 82.62L116.53 83.21L117.08 83.78L117.63 84.35L118.16 84.91L118.67 85.46L119.18 86.01L119.67 86.54L120.15 87.06L120.62 87.56L121.07 88.06L121.50 88.54L121.93 89.01L122.33 89.47L122.73 89.92L123.10 90.34L123.46 90.76L123.81 91.16L124.13 91.54L124.45 91.91L124.74 92.27L125.02 92.60L125.28 92.92L125.52 93.23L125.75 93.51L125.96 93.78L126.15 94.03L126.32 94.27L126.48 94.48L126.61 94.68L126.73 94.86L126.83 95.02L126.91 95.17L126.98 95.29L127.03 95.40L127.05 95.48L127.06 95.55L127.06 95.60L127.03 95.64L126.99 95.65L126.92 95.64L126.84 95.62L126.75 95.58L126.63 95.52L126.50 95.44L126.35 95.34L126.18 95.23L126.00 95.10L125.79 94.95L125.58 94.79L125.34 94.60L125.09 94.40L124.82 94.19L124.54 93.95L124.24 93.71L123.93 93.44L123.60 93.16L123.25 92.87L122.89 92.56L122.52 92.24L122.13 91.90L121.73 91.55L121.31 91.18L120.88 90.81L120.44 90.42L119.99 90.01L119.52 89.60L119.04 89.18L118.55 88.74L118.05 88.30L117.54 87.84L117.02 87.38L116.49 86.90L115.95 86.42L115.40 85.93L114.84 85.44L114.27 84.93L113.69 84.43L113.11 83.91L112.52 83.39L111.92 82.87L111.31 82.34L110.70 81.80L110.09 81.27L109.46 80.73L108.84 80.19L108.21 79.65L107.57 79.11L106.93 78.57L106.29 78.03L105.65 77.49L105.00 76.95L104.36 76.41L103.71 75.88L103.06 75.35L102.41 74.83L101.76 74.30L101.11 73.79L100.46 73.28L99.81 72.78L99.17 72.28L98.53 71.79L97.89 71.31L97.25 70.84L96.61 70.37L95.98 69.92L95.36 69.48L94.74 69.04L94.12 68.62L93.51 68.21L92.91 67.82L92.31 67.43L91.72 67.06L91.14 66.71L90.56 66.37L89.99 66.04L89.43 65.73L88.88 65.44L88.34 65.16L87.80 64.89L87.28 64.65L86.77 64.42L86.26 64.21L85.77 64.02L85.29 63.85L84.82 63.70L84.36 63.57L83.91 63.46L83.48 63.36L83.05 63.29L82.64 63.24L82.24 63.21L81.86 63.20L81.49 63.21L81.13 63.25L80.78 63.30L80.45 63.38L80.13 63.48L79.83 63.61L79.54 63.75L79.26 63.92L79.00 64.11L78.75 64.33L78.52 64.57L78.30 64.83L78.10 65.11L77.91 65.41L77.73 65.74L77.57 66.09L77.43 66.47L77.30 66.86L77.18 67.28L77.08 67.72L76.99 68.19L76.92 68.67L76.86 69.18L76.81 69.70L76.78 70.25L76.76 70.82L76.76 71.41L76.77 72.02" fill="none" stroke="#D35233" stroke-width="0.54" opacity="0.95" stroke-linejoin="round" stroke-linecap="round"/></svg>